<mxfile host="app.diagrams.net" agent="Mozilla/5.0 (Windows NT 10.0; Win64; x64) AppleWebKit/537.36 (KHTML, like Gecko) Chrome/131.0.0.0 Safari/537.36 Edg/131.0.0.0" version="24.8.9">
  <diagram name="หน้า-1" id="bG6KxIcNSAZW_BvTzG82">
    <mxGraphModel dx="2964" dy="1380" grid="1" gridSize="10" guides="1" tooltips="1" connect="1" arrows="1" fold="1" page="1" pageScale="1" pageWidth="827" pageHeight="1169" math="0" shadow="0">
      <root>
        <mxCell id="0" />
        <mxCell id="1" parent="0" />
        <mxCell id="5hD9cjYnJ-lqx0YZHHyA-24" value="" style="edgeStyle=orthogonalEdgeStyle;rounded=0;orthogonalLoop=1;jettySize=auto;html=1;" edge="1" parent="1" source="5hD9cjYnJ-lqx0YZHHyA-25" target="5hD9cjYnJ-lqx0YZHHyA-34">
          <mxGeometry relative="1" as="geometry" />
        </mxCell>
        <mxCell id="5hD9cjYnJ-lqx0YZHHyA-25" value="Start" style="ellipse;whiteSpace=wrap;html=1;" vertex="1" parent="1">
          <mxGeometry x="354" y="20" width="120" height="80" as="geometry" />
        </mxCell>
        <mxCell id="5hD9cjYnJ-lqx0YZHHyA-26" value="" style="edgeStyle=orthogonalEdgeStyle;rounded=0;orthogonalLoop=1;jettySize=auto;html=1;" edge="1" parent="1" source="5hD9cjYnJ-lqx0YZHHyA-27">
          <mxGeometry relative="1" as="geometry">
            <mxPoint x="414" y="350" as="targetPoint" />
          </mxGeometry>
        </mxCell>
        <mxCell id="5hD9cjYnJ-lqx0YZHHyA-27" value="จัด&amp;nbsp;CODEX" style="rounded=0;whiteSpace=wrap;html=1;" vertex="1" parent="1">
          <mxGeometry x="354" y="220" width="120" height="60" as="geometry" />
        </mxCell>
        <mxCell id="5hD9cjYnJ-lqx0YZHHyA-28" value="" style="edgeStyle=orthogonalEdgeStyle;rounded=0;orthogonalLoop=1;jettySize=auto;html=1;" edge="1" parent="1" source="5hD9cjYnJ-lqx0YZHHyA-30" target="5hD9cjYnJ-lqx0YZHHyA-32">
          <mxGeometry relative="1" as="geometry" />
        </mxCell>
        <mxCell id="5hD9cjYnJ-lqx0YZHHyA-29" value="" style="edgeStyle=orthogonalEdgeStyle;rounded=0;orthogonalLoop=1;jettySize=auto;html=1;" edge="1" parent="1" source="5hD9cjYnJ-lqx0YZHHyA-30" target="5hD9cjYnJ-lqx0YZHHyA-42">
          <mxGeometry relative="1" as="geometry" />
        </mxCell>
        <mxCell id="5hD9cjYnJ-lqx0YZHHyA-30" value="จัดCODEXถูกหรือไม่" style="rhombus;whiteSpace=wrap;html=1;" vertex="1" parent="1">
          <mxGeometry x="354" y="350" width="120" height="80" as="geometry" />
        </mxCell>
        <mxCell id="5hD9cjYnJ-lqx0YZHHyA-31" value="" style="edgeStyle=orthogonalEdgeStyle;rounded=0;orthogonalLoop=1;jettySize=auto;html=1;entryX=0;entryY=0.5;entryDx=0;entryDy=0;" edge="1" parent="1" source="5hD9cjYnJ-lqx0YZHHyA-32" target="5hD9cjYnJ-lqx0YZHHyA-34">
          <mxGeometry relative="1" as="geometry">
            <mxPoint x="214" y="250" as="targetPoint" />
            <Array as="points">
              <mxPoint x="214" y="150" />
            </Array>
          </mxGeometry>
        </mxCell>
        <mxCell id="5hD9cjYnJ-lqx0YZHHyA-32" value="ตรวจCodexใหม่" style="whiteSpace=wrap;html=1;" vertex="1" parent="1">
          <mxGeometry x="154" y="360" width="120" height="60" as="geometry" />
        </mxCell>
        <mxCell id="5hD9cjYnJ-lqx0YZHHyA-33" value="" style="edgeStyle=orthogonalEdgeStyle;rounded=0;orthogonalLoop=1;jettySize=auto;html=1;" edge="1" parent="1" source="5hD9cjYnJ-lqx0YZHHyA-34" target="5hD9cjYnJ-lqx0YZHHyA-27">
          <mxGeometry relative="1" as="geometry" />
        </mxCell>
        <mxCell id="5hD9cjYnJ-lqx0YZHHyA-34" value="" style="ellipse;whiteSpace=wrap;html=1;aspect=fixed;" vertex="1" parent="1">
          <mxGeometry x="404" y="140" width="20" height="20" as="geometry" />
        </mxCell>
        <mxCell id="5hD9cjYnJ-lqx0YZHHyA-35" value="End" style="ellipse;whiteSpace=wrap;html=1;" vertex="1" parent="1">
          <mxGeometry x="354" y="720" width="120" height="80" as="geometry" />
        </mxCell>
        <mxCell id="5hD9cjYnJ-lqx0YZHHyA-36" value="no" style="text;html=1;align=center;verticalAlign=middle;whiteSpace=wrap;rounded=0;" vertex="1" parent="1">
          <mxGeometry x="320" y="360" width="60" height="30" as="geometry" />
        </mxCell>
        <mxCell id="5hD9cjYnJ-lqx0YZHHyA-37" value="yes" style="text;html=1;align=center;verticalAlign=middle;whiteSpace=wrap;rounded=0;" vertex="1" parent="1">
          <mxGeometry x="424" y="410" width="60" height="30" as="geometry" />
        </mxCell>
        <mxCell id="5hD9cjYnJ-lqx0YZHHyA-38" value="" style="edgeStyle=orthogonalEdgeStyle;rounded=0;orthogonalLoop=1;jettySize=auto;html=1;" edge="1" parent="1" source="5hD9cjYnJ-lqx0YZHHyA-40" target="5hD9cjYnJ-lqx0YZHHyA-35">
          <mxGeometry relative="1" as="geometry" />
        </mxCell>
        <mxCell id="5hD9cjYnJ-lqx0YZHHyA-39" value="" style="edgeStyle=orthogonalEdgeStyle;rounded=0;orthogonalLoop=1;jettySize=auto;html=1;" edge="1" parent="1" source="5hD9cjYnJ-lqx0YZHHyA-40" target="5hD9cjYnJ-lqx0YZHHyA-44">
          <mxGeometry relative="1" as="geometry" />
        </mxCell>
        <mxCell id="5hD9cjYnJ-lqx0YZHHyA-40" value="coderunได้ไหม" style="rhombus;whiteSpace=wrap;html=1;" vertex="1" parent="1">
          <mxGeometry x="354" y="560" width="120" height="80" as="geometry" />
        </mxCell>
        <mxCell id="5hD9cjYnJ-lqx0YZHHyA-41" value="" style="edgeStyle=orthogonalEdgeStyle;rounded=0;orthogonalLoop=1;jettySize=auto;html=1;" edge="1" parent="1" source="5hD9cjYnJ-lqx0YZHHyA-42" target="5hD9cjYnJ-lqx0YZHHyA-40">
          <mxGeometry relative="1" as="geometry" />
        </mxCell>
        <mxCell id="5hD9cjYnJ-lqx0YZHHyA-42" value="" style="ellipse;whiteSpace=wrap;html=1;aspect=fixed;" vertex="1" parent="1">
          <mxGeometry x="404" y="490" width="20" height="20" as="geometry" />
        </mxCell>
        <mxCell id="5hD9cjYnJ-lqx0YZHHyA-43" value="" style="edgeStyle=orthogonalEdgeStyle;rounded=0;orthogonalLoop=1;jettySize=auto;html=1;" edge="1" parent="1" source="5hD9cjYnJ-lqx0YZHHyA-44" target="5hD9cjYnJ-lqx0YZHHyA-48">
          <mxGeometry relative="1" as="geometry" />
        </mxCell>
        <mxCell id="5hD9cjYnJ-lqx0YZHHyA-44" value="ตรวจCodeใหม่" style="whiteSpace=wrap;html=1;" vertex="1" parent="1">
          <mxGeometry x="154" y="570" width="120" height="60" as="geometry" />
        </mxCell>
        <mxCell id="5hD9cjYnJ-lqx0YZHHyA-45" value="yes" style="text;html=1;align=center;verticalAlign=middle;whiteSpace=wrap;rounded=0;" vertex="1" parent="1">
          <mxGeometry x="414" y="630" width="60" height="30" as="geometry" />
        </mxCell>
        <mxCell id="5hD9cjYnJ-lqx0YZHHyA-46" value="no" style="text;html=1;align=center;verticalAlign=middle;whiteSpace=wrap;rounded=0;" vertex="1" parent="1">
          <mxGeometry x="320" y="560" width="60" height="30" as="geometry" />
        </mxCell>
        <mxCell id="5hD9cjYnJ-lqx0YZHHyA-47" value="" style="edgeStyle=orthogonalEdgeStyle;rounded=0;orthogonalLoop=1;jettySize=auto;html=1;" edge="1" parent="1" source="5hD9cjYnJ-lqx0YZHHyA-48" target="5hD9cjYnJ-lqx0YZHHyA-42">
          <mxGeometry relative="1" as="geometry" />
        </mxCell>
        <mxCell id="5hD9cjYnJ-lqx0YZHHyA-48" value="แก้Codeใหม่" style="whiteSpace=wrap;html=1;" vertex="1" parent="1">
          <mxGeometry x="154" y="470" width="120" height="60" as="geometry" />
        </mxCell>
      </root>
    </mxGraphModel>
  </diagram>
</mxfile>
